<svg xmlns="http://www.w3.org/2000/svg" version="1.1" width="200px" height="200px" viewBox="0 0 200 200" style="overflow:hidden!important;"><g id="svga-group-wrapper"><g id="svga-group-backs-single"></g><g id="svga-group-humanwrap-move" transform="matrix(1,0,0,1,0,0)"><g id="svga-group-humanwrap"><g id="svga-group-hair-back-move" transform="matrix(1,0,0,1,0,0)"><g id="svga-group-hair-back"></g></g><g id="svga-group-humanbody-back"><path id="SvgjsPath4894" d="M180.8 184.9c-2.3-3.4-38.9-17.8-38.9-17.8l-13.4-5.2-5.6-68.8H76.8L71.3 162l-13.4 5.2S21.4 181.6 19 185c-2.3 3.4-3.3 14.9-3.3 14.9V219h168.5v-19.2c-.1.1-1-11.5-3.4-14.9z" fill="#582812" stroke-width="none" opacity="1" stroke="none"></path></g><g id="svga-group-chinshadow-single"><path id="SvgjsPath5087" d="M85.7 157.38c2.95 2.5 14.4 2.34 17.66.34 3.2-1.96 8.57-7.52 22.92-23.62l-3.34-41H76.82l-4.05 50.95c6.27 6.89 11.03 11.73 12.93 13.33z" fill="#391200" stroke-width="none" opacity="1" stroke="none"></path></g><g id="svga-group-humanbody-front"><path id="SvgjsPath4895" d="M184.5 219c-.1-6.4-.1-12.8-.1-19.2l-.3-.1s.1-.1.2 0c.1 0 .1.1.1.1v-.4l-.1-.5-.1-.9-.2-1.9c-.2-1.3-.4-2.5-.6-3.8-.2-1.3-.5-2.5-.9-3.8-.4-1.2-.8-2.5-1.5-3.6-.8-.9-1.9-1.5-2.9-2.1-1-.6-2.1-1.1-3.2-1.7-2.1-1.1-4.3-2.1-6.5-3.1-4.4-2-8.7-3.9-13.1-5.7-4.4-1.9-8.8-3.7-13.2-5.5l-13-5.2-1.2-16.9c-.4-5.7-.9-11.5-1.3-17.2l-1.3-17.2-1.5-17.3-.1-.8h-.8c-7.7 0-15.4.1-23.1.1l-23.1.2h-.5v.5L75 110.2l-1.3 17.2c-.8 11.4-1.8 22.8-2.8 34.2-5.6 2.1-11.2 4.2-16.7 6.4-5.6 2.2-11.2 4.5-16.8 6.9-2.8 1.2-5.6 2.4-8.3 3.6-2.8 1.3-5.5 2.5-8.2 4.1-.7.4-1.3.8-2 1.4-.2.1-.4.4-.5.6l-.3.6c-.2.4-.4.7-.5 1.1-.6 1.5-1 3-1.3 4.5-.6 3-1.1 6-1.4 9.1l-.1 19.1v.9h.9l42.1.1H100c14 0 28.1-.1 42.1-.2l42.1-.5h.3v-.3zm-84.5-1-42.1-.1-41.2.1-.1-18.1c.3-3 .6-5.9 1.2-8.9.3-1.4.6-2.9 1.1-4.2.1-.3.3-.7.4-.9l.2-.4.3-.3c.5-.4 1.1-.8 1.8-1.2 2.5-1.5 5.3-2.8 8-4.1 2.7-1.3 5.5-2.5 8.2-3.7 5.5-2.4 11.1-4.8 16.7-7.1s11.2-4.5 16.9-6.7l.2-.1v-.2c.9-11.5 1.7-23 2.7-34.4l1.4-17.2 1.5-16.7 22.6.2c7.4.1 14.8.1 22.3.1l1.3 16.4 1.5 17.2c.5 5.7 1 11.5 1.5 17.2l1.6 17.2v.3l.3.1 13.4 5c4.4 1.7 8.9 3.4 13.3 5.2 4.4 1.8 8.8 3.7 13.2 5.6 2.2 1 4.3 2 6.5 3 1.1.5 2.1 1.1 3.2 1.6 1 .6 2.1 1.2 2.9 2 .7 1.1 1.1 2.3 1.4 3.5.3 1.2.6 2.5.8 3.7.2 1.3.4 2.5.6 3.8l.2 1.9.1.9.1.5v.4c0 6.3 0 12.6-.1 18.9l-41.8-.5c-14 .1-28.1 0-42.1 0z" fill="#2a0d00" stroke-width="none" opacity="1" stroke="none"></path><path id="SvgjsPath4896" d="M125.1 142.4s-1.8 23-9.1 32.9c0 0 7.9-25 9.1-32.9zm-34.5 16s5 7.9 11.5 10.1c0 0-9.5 2.2-11.5-10.1zM73.4 140c6.7 25.6 6.7 25.6 8.5 30.7 0 0 .4-12.6-8.5-30.7z" fill="#391200" stroke-width="none" opacity="1" stroke="none"></path></g><g id="svga-group-clothes-single"><path id="SvgjsPath9498" d="M187 220c0-12.4-1.8-33.5-4-36.1s-36.9-16.9-39.5-17.6-13.8-4.8-13.8-4.8l-.9-15s-3 1.6-8.2 3.6c-12.8 4.9-14.6 4.2-17.3 6.4s-2 12.2-2 12.2l-2.1-.2s-.2-10.4-3-12.5c-2.8-2.1-11.1-3.1-17.9-5.9-5.2-2.1-7.7-3.5-7.7-3.5l-.9 15s-11.1 4.1-13.7 4.8-37.3 15-39.5 17.6-4 23.7-4 36.1H187z" fill="#386e77" stroke-width="none" opacity="1"></path><path id="SvgjsPath9499" d="M90.2 179.4h19.7v3.4H90.2v-3.4zm0 14.8h19.7v3.4H90.2v-3.4zm0 14.7h19.7v3.4H90.2v-3.4z" fill="#939393" stroke-width="none" opacity="1"></path><path id="SvgjsPath9500" d="M187.1 214.3c0-1.9-.1-3.8-.2-5.7-.2-3.8-.4-7.5-.7-11.3-.4-3.8-.8-7.5-1.7-11.3-.1-.5-.2-.9-.4-1.4-.2-.4-.4-1-.8-1.4-.9-.7-1.7-1.1-2.5-1.6-1.7-.9-3.4-1.8-5.1-2.6-6.8-3.3-13.8-6.3-20.7-9.2-3.5-1.4-22.9-8-24.4-8.9-.2-4.8-.6-9.7-.9-14.5l-.1-1.6-1.3.9c-1.4 1-3 1.8-4.7 2.4-1.7.7-8.1 3.3-11.7 4.3-1.8.5-3.6 1-5.3 1.6-.9.3-1.8.6-2.6 1.1-.2.1-.4.2-.7.4s-.4.3-.6.5c-.4.4-.7.9-.9 1.3-.8 1.9-1 3.8-1.1 5.6-.1 1.7-.1 3.3 0 5l-1.1-.1c-.1-1.7-.2-3.4-.5-5.1-.3-1.9-.6-3.7-1.5-5.5-.2-.4-.5-.9-.8-1.3-.2-.2-.4-.4-.6-.5-.2-.1-.4-.3-.6-.4-.9-.4-1.8-.8-2.7-1-1.8-.6-19.4-5.8-22.3-7.8l-.4-.1-.1.4-.9 14.8c-1.6.9-12.2 4.3-14 4.8-3.6 1.3-7.1 2.7-10.6 4.1-7 2.8-14 5.7-20.8 8.9-1.7.8-3.4 1.6-5.1 2.5-.4.2-.8.5-1.3.7-.4.3-.8.5-1.3.9s-.7 1-.9 1.5c-.2.5-.3.9-.5 1.4-1 3.8-1.4 7.5-1.9 11.3-.8 7.5-1.3 15.1-1.4 22.7v.9h1c14.6 0 29.2.1 43.8.1 14.6-.1 29.2 0 43.8-.1l43.6-.4 43.3-.5c0-.5.1-1 .1-1.5v-1.4l.1-2.9zm-85.2-51c.2-1.8.4-3.6 1.1-5.2.2-.4.4-.7.6-.9.1-.1.3-.2.4-.3.2-.1.3-.2.6-.3.8-.4 1.6-.7 2.5-1 1.7-.6 8.8-2.1 21-7.5.2 4.5.5 9 .8 13.5v.4c-2.4 1.2-8 5.3-15.8 6.3-1.5.2-2.9.4-4.4.5-2.3.2-4.6.3-6.8.2v-.3c-.1-1.8-.1-3.6 0-5.4zm-2.1 33.9c-1.6 0-3.2.1-4.8.2-1.6.1-3.1.1-4.7.1 0-1 .1-1.9.1-2.9 3.2.2 6.4.2 9.6.2 3.2 0 6.4-.1 9.6-.2.1 1 .2 2 .2 3-1.8-.1-3.4-.2-5.1-.3-1.6-.1-3.2-.1-4.9-.1zm.2 12.2c3.2 0 6.4-.1 9.6-.2.1 1 .2 2 .2 3-1.8-.1-3.4-.2-5.1-.3-1.7-.1-3.3-.1-4.9-.1s-3.2.1-4.8.2c-1.6.1-3.1.1-4.7.1 0-1 .1-1.9.1-2.9 3.2.1 6.4.2 9.6.2zm-.5-15.7v-3.6 3.6zm.3-11.3c-.1 0-3.3.1-4.8.2-1.6.1-3.1.1-4.7.1 0-1 .1-1.9.1-2.9 3.2.2 6.4.2 9.6.2 3.2 0 6.4-.1 9.6-.2.1 1 .2 2 .2 3-1.8-.1-3.4-.2-5.1-.3-1.6-.1-3.2-.1-4.9-.1zm-29-35.3c3 1.9 13.1 5.4 16.7 6.3 1.8.4 3.6.9 5.3 1.5.9.3 1.7.6 2.5 1l.5.3c.2.1.3.3.4.4.2.3.5.7.7 1.1.7 1.6 1 3.5 1.3 5.3.2 1.8.4 3.7.4 5.5v.4c-5.5-.2-10.9-1-16.3-2.2-2.9-.6-9.2-3.4-12.4-5.5l.9-14.1zm-56.1 50.4c.4-3.7.8-7.5 1.6-11.1.1-.4.2-.9.4-1.3.1-.4.3-.8.5-.9.2-.2.6-.5 1-.7.4-.2.8-.5 1.2-.7.3-.1.5-.3.8-.4 1 1.3 1.9 2.6 2.7 4 .9 1.4 1.6 2.9 2.3 4.4 1.4 3 2.6 6.1 3.4 9.2s1.4 6.4 1.9 9.7c.4 3 .8 6.1 1.1 9.2-6 0-12 .1-18.1.1.1-7.1.5-14.3 1.2-21.5zm84.7 21.6c-14.5-.1-29-.1-43.4-.1H31.7c0-1.4 0-2.9-.1-4.3-.1-1.7-.2-3.3-.4-5-.3-3.3-.9-6.6-1.6-9.9-.8-3.2-2.1-6.4-3.7-9.3-1.6-2.9-3.4-5.7-5.7-8.1l4.2-2.1c6.8-3.2 13.7-6.2 20.6-9.2 3.5-1.4 7-2.9 10.5-4.2 1.8-.5 12.7-4.1 14.3-5.1 0 0 6.8 4.2 12.4 5.6 5.8 1.4 11.7 2.2 17.6 2.5h.1c-.1 1.9-.1 3.7-.2 5.6l-.1 3.4c-3.2 0-6.3.1-9.5.2h-.3v.3c0 1.1.1 2.2.1 3.4v.2h.2c1.7 0 3.3 0 5 .1 1.5.1 2.9.1 4.4.1v3.7c0 2.3 0 4.6-.1 6.9-3.1 0-6.2.1-9.3.2h-.3v.3c0 1.1.1 2.2.1 3.4v.2h.2c1.7 0 3.3 0 5 .1 1.5.1 2.9.1 4.4.1 0 3.5 0 6.9.1 10.4-3.2 0-6.3.1-9.4.2h-.3v.3c0 1.1.1 2.2.1 3.4v.2h.2c1.7 0 3.3 0 5 .1 1.5.1 3.1.1 4.6.1.1 3 .1 3.7.2 6.5l-.6-.2zm43.6.4-43-.3c.2-2.7.2-3.5.2-6.5 1.7 0 3.3-.1 4.9-.1 1.6-.1 3.2-.1 4.8-.3.1-1.1.2-2.2.2-3.4v-.3h-.3c-3.2-.2-6.3-.2-9.5-.2.1-3.4.1-7 .1-10.4 1.6 0 3.1-.1 4.6-.1 1.6-.1 3.2-.1 4.8-.3.1-1.1.2-2.2.2-3.4v-.3h-.3c-3.1-.2-6.2-.2-9.4-.2 0-3.9 0-6.6-.1-10.5 1.6 0 3.2-.1 4.7-.1 1.6-.1 3.2-.1 4.8-.3.1-1.1.2-2.2.2-3.4v-.3h-.3c-3.2-.2-6.3-.2-9.5-.2l-.1-3.4c-.1-1.9-.1-3.7-.2-5.6 2.9.1 5.8 0 8.8-.3 3-.3 5.8-.9 8.7-1.6 5.8-1.4 11.8-5.8 11.8-5.8 1.6 1 11 3.6 11.9 4 .4.2 9.7 3.7 13.2 5.1 7 2.9 13.9 5.8 20.8 8.9 1.3.6 2.5 1.2 3.8 1.8-2.1 2.6-3.7 5.4-5 8.5-1.4 3-2.3 6.3-2.7 9.6-.4 3.3-.7 6.6-.7 9.9 0 3.2.1 6.5.4 9.7l-27.8-.2zm27.9.3c0-1.6 0-3.1.1-4.7 0-1.6.1-3.3.2-4.9.2-3.3.5-6.6.9-9.8.4-3.2 1.3-6.4 2.4-9.4.6-1.5 1.2-3 2-4.5.7-1.5 1.5-2.9 2.3-4.2.4.2.9.4 1.3.6.8.4 1.7.9 2.3 1.4.2.2.4.6.6 1 .2.4.3.9.4 1.3.9 3.6 1.4 7.3 1.9 11.1.4 3.7.8 7.5 1.1 11.2.1 1.9.2 3.8.3 5.6l.2 5.6-16-.3z" fill="#184f58" stroke-width="none" opacity="1"></path></g><g id="svga-group-head" transform="matrix(1,0,0,1,0,0)"><g id="svga-group-ears-left-move" transform="matrix(1,0,0,1,0,0)"><g id="svga-group-ears-left"><path id="SvgjsPath6176" d="M68.41 84.17s-2.58-5.02-4.51-7.21-6.82-5.79-7.98-5.54-6.31 14.04-6.82 16.1c-.52 2.06 6.18 8.63 6.82 9.79.64 1.16.52 3.99.39 4.76s5.15 2.83 7.85 2.19c2.71-.65 10.05-9.54 4.25-20.09z" fill="#582812" stroke-width="none" opacity="1"></path><path id="SvgjsPath6177" d="M68.03 90.6s-5.92-8.11-9.91-10.82c-3.99-2.7-5.67 7.73-5.41 8.76s4.64 6.31 6.31 7.08 7.33-.64 9.01-5.02z" fill="#491c08" stroke-width="none" opacity="1"></path><path id="SvgjsPath6178" d="M49.09 87.02c-.06.22-.14.41-.16.67 0 .24.03.48.11.7.29.87.78 1.62 1.26 2.35.49.73 1.03 1.43 1.58 2.12 1.09 1.38 2.25 2.71 3.34 4.05.13.17.27.34.36.49.09.15.15.33.21.52.11.38.16.8.19 1.22.06.84.05 1.71-.04 2.55l-.04.31c-.02.4.16.52.24.63.21.22.41.34.61.47.41.25.82.44 1.24.61.84.35 1.69.62 2.57.82.88.2 1.78.33 2.72.29.47-.02.95-.08 1.43-.3.26-.08.43-.23.64-.35.21-.12.39-.27.57-.42 2.81-2.39 4.39-5.88 4.78-9.42.13-.89.07-1.78.07-2.67-.12-.88-.17-1.77-.43-2.62-.36-1.73-1.1-3.35-1.9-4.91-.79-1.57-1.65-3.09-2.54-4.6-.45-.76-.92-1.5-1.44-2.22-.53-.72-1.15-1.36-1.79-1.97a28.138 28.138 0 0 0-4.17-3.28c-.38-.24-.76-.48-1.18-.67-.2-.1-.43-.18-.65-.27-.24-.06-.49-.15-.87-.07-.46.23-.48.42-.65.62-.13.2-.25.39-.36.59-.22.39-.42.79-.61 1.19-1.46 3.22-2.59 6.54-3.8 9.83l-.87 2.48-.42 1.26zm.13.69c.01-.17.09-.4.14-.6l.4-1.25c.28-.83.59-1.65.9-2.47.61-1.64 1.28-3.26 1.97-4.86.69-1.6 1.41-3.2 2.19-4.75.19-.39.39-.77.6-1.14.11-.18.22-.36.33-.53.06-.09.12-.15.17-.23.03-.04.08-.07.09-.08.03 0 .08 0 .14.01.09.02.17.04.26.07.18.07.37.14.56.24.37.18.75.39 1.12.6 1.47.89 2.86 1.95 4.2 3.05.66.56 1.3 1.14 1.85 1.8.55.66 1.06 1.38 1.55 2.1.97 1.45 1.83 2.98 2.66 4.52 1.61 3.08 2.43 6.67 1.76 10.07-.3 1.69-.84 3.33-1.65 4.84-.81 1.49-1.83 2.91-3.12 3.96-.16.14-.32.26-.49.36-.17.09-.34.24-.51.28-.31.16-.72.21-1.12.22-.81.03-1.66-.09-2.49-.26-.83-.18-1.65-.42-2.44-.73a9.77 9.77 0 0 1-1.13-.53c-.17-.1-.34-.22-.44-.31l-.03-.03.03-.26c.07-.91.08-1.8-.01-2.7a7.4 7.4 0 0 0-.26-1.36c-.08-.23-.16-.46-.31-.69a5 5 0 0 0-.43-.55c-1.16-1.35-2.37-2.59-3.51-3.92-.57-.66-1.12-1.33-1.64-2.03-.51-.7-1.01-1.43-1.28-2.23-.03-.22-.06-.42-.06-.61z" fill="#491c08" stroke-width="none" opacity="1"></path><path id="SvgjsPath6179" d="M54.5 82.01c.34-.68.71-1.4 1.37-1.89.31-.25.82-.37 1.21-.16.39.19.65.53.87.83.92 1.24 1.7 2.57 2.38 3.94 1.31 2.76 2.4 5.61 3.21 8.56l-.08.03c-1.35-2.74-2.56-5.51-3.83-8.25-.62-1.37-1.2-2.78-1.98-4.06-.19-.33-.41-.61-.7-.78-.29-.16-.64-.09-.93.11-.56.44-.91 1.14-1.21 1.81-.55 1.39-.85 2.89-.94 4.35-.02.36-.02.73.04 1.06.02.17.06.31.11.43.09.16.16.32.26.47.37.63.8 1.24 1.25 1.84.45.6.9 1.2 1.38 1.78l.71.87c.06.07.12.13.18.2.2-.53.34-1.18.48-1.78l.43-2.13c-.6-.94-1.19-1.89-1.75-2.86l.07-.05c.75.89 1.48 1.79 2.19 2.7l.06.07-.01.12A29.5 29.5 0 0 1 59 91.5c-.14.77-.2 1.49-.53 2.33-.04.07-.05.11-.12.2-.03.04-.05.07-.13.13-.03.03-.07.05-.1.07-.06.03-.14.05-.21.05-.13.02-.29-.07-.35-.11l-.07-.06a.769.769 0 0 1-.13-.12c-.15-.15-.28-.29-.41-.43-.26-.29-.51-.58-.76-.88-.48-.6-.96-1.2-1.39-1.84-.44-.63-.86-1.28-1.24-1.97-.1-.17-.18-.36-.27-.54-.09-.24-.14-.46-.16-.67-.04-.42-.01-.82.03-1.21.18-1.57.68-3.04 1.34-4.44z" fill="#2a0d00" stroke-width="none" opacity="1"></path></g></g><g id="svga-group-ears-right-move" transform="matrix(1,0,0,1,0,0)"><g id="svga-group-ears-right"><path id="SvgjsPath6180" d="M131.59 84.17s2.58-5.02 4.51-7.21 6.82-5.79 7.98-5.54 6.31 14.04 6.82 16.1c.52 2.06-6.18 8.63-6.82 9.79-.64 1.16-.52 3.99-.39 4.76.13.77-5.15 2.83-7.85 2.19-2.71-.65-10.05-9.54-4.25-20.09z" fill="#582812" stroke-width="none" opacity="1"></path><path id="SvgjsPath6181" d="M131.97 90.6s5.92-8.11 9.91-10.82c3.99-2.7 5.67 7.73 5.41 8.76-.26 1.03-4.64 6.31-6.31 7.08s-7.33-.64-9.01-5.02z" fill="#491c08" stroke-width="none" opacity="1"></path><path id="SvgjsPath6182" d="m150.49 85.77-.87-2.48c-1.22-3.29-2.34-6.61-3.8-9.83-.19-.4-.39-.8-.61-1.19-.11-.2-.22-.39-.36-.59-.17-.2-.19-.39-.65-.62-.38-.08-.63.01-.87.07-.23.08-.45.16-.65.27-.42.19-.8.43-1.18.67-1.5.97-2.89 2.06-4.17 3.28-.64.61-1.26 1.25-1.79 1.97-.53.71-.99 1.46-1.44 2.22-.89 1.51-1.76 3.04-2.54 4.6-.8 1.56-1.54 3.17-1.9 4.91-.26.85-.3 1.74-.43 2.62 0 .89-.06 1.78.07 2.67.38 3.54 1.96 7.03 4.78 9.42.17.15.36.3.57.42.21.12.38.27.64.35.49.23.96.28 1.43.3.94.04 1.84-.09 2.72-.29.88-.2 1.74-.47 2.57-.82.42-.18.83-.37 1.24-.61.2-.13.4-.25.61-.47.08-.12.26-.23.24-.63l-.04-.31c-.09-.84-.09-1.71-.04-2.55.03-.42.09-.84.19-1.22.06-.19.12-.37.21-.52.1-.15.23-.33.36-.49 1.1-1.34 2.26-2.67 3.34-4.05.55-.69 1.08-1.39 1.58-2.12.49-.74.97-1.48 1.26-2.35.07-.22.11-.45.11-.7-.02-.27-.1-.45-.16-.67l-.42-1.26zm.19 2.53c-.27.8-.77 1.53-1.28 2.23s-1.07 1.37-1.64 2.03c-1.14 1.33-2.36 2.57-3.51 3.92-.14.17-.29.34-.43.55-.14.23-.23.46-.31.69a7.4 7.4 0 0 0-.26 1.36c-.09.9-.09 1.79-.01 2.7l.03.26c-.01.01-.01.02-.03.03-.1.1-.27.22-.44.31-.35.2-.73.38-1.13.53-.79.31-1.61.55-2.44.73-.83.17-1.67.29-2.49.26-.4-.01-.81-.07-1.12-.22-.17-.04-.34-.18-.51-.28-.17-.09-.33-.22-.49-.36-1.29-1.05-2.31-2.47-3.12-3.96-.81-1.5-1.35-3.15-1.65-4.84-.67-3.4.14-6.99 1.76-10.07.83-1.54 1.69-3.07 2.66-4.52.49-.72 1-1.43 1.55-2.1.55-.66 1.19-1.24 1.85-1.8 1.34-1.1 2.73-2.16 4.2-3.05.37-.22.74-.43 1.12-.6.19-.1.37-.17.56-.24.09-.03.17-.04.26-.07.07-.01.11-.01.14-.01.01.01.06.05.09.08.06.08.12.14.17.23.12.16.22.35.33.53.21.37.41.75.6 1.14.78 1.55 1.5 3.15 2.19 4.75.7 1.6 1.36 3.22 1.97 4.86.31.82.62 1.64.9 2.47l.4 1.25c.06.2.13.43.14.6.04.21.01.41-.06.61z" fill="#491c08" stroke-width="none" opacity="1"></path><path id="SvgjsPath6183" d="M145.5 82.01c-.34-.68-.71-1.4-1.37-1.89-.31-.25-.82-.37-1.21-.16-.39.19-.65.53-.87.83-.92 1.24-1.7 2.57-2.38 3.94-1.31 2.76-2.4 5.61-3.21 8.56l.08.03c1.35-2.74 2.56-5.51 3.83-8.25.62-1.37 1.2-2.78 1.98-4.06.19-.33.41-.61.7-.78.29-.16.64-.09.93.11.56.44.91 1.14 1.21 1.81.55 1.39.85 2.89.94 4.35.02.36.01.73-.04 1.06-.02.17-.06.31-.11.43-.09.16-.16.32-.26.47-.37.63-.8 1.24-1.25 1.84-.45.6-.9 1.2-1.38 1.78l-.71.87c-.06.07-.12.13-.18.2-.2-.53-.34-1.18-.48-1.78l-.43-2.13c.6-.94 1.19-1.89 1.75-2.86l-.07-.05c-.75.89-1.48 1.79-2.19 2.7l-.06.07.01.12c.06.76.15 1.52.27 2.28.14.77.2 1.49.53 2.33.04.07.05.11.12.2.03.04.05.07.13.13.03.03.07.05.1.07.06.03.14.05.21.05.13.02.29-.07.35-.11l.07-.06c.05-.04.1-.08.13-.12.15-.15.28-.29.41-.43.26-.29.51-.58.76-.88.48-.6.96-1.2 1.39-1.84.44-.63.86-1.28 1.24-1.97.1-.17.18-.36.27-.54.09-.24.14-.46.16-.67.04-.42.01-.82-.03-1.21-.18-1.57-.68-3.04-1.34-4.44z" fill="#2a0d00" stroke-width="none" opacity="1"></path></g></g><g id="svga-group-faceshape-wrap"><g id="svga-group-faceshape-single"><path id="SvgjsPath5077" d="M140.4 54.9c-2.2-10-6.3-16-15.2-20.8-9.3-5-25.2-4.8-25.2-4.8s-15.9-.2-25.2 4.8c-8.8 4.8-13 10.8-15.2 20.8-.9 4 0 13.6 0 13.6s1.6 12.3 1.7 18.2c.2 5.8 1.4 18 2.2 25.1.98 7.08 1.46 7.68 1.46 7.68 12.25 14.4 22.69 25.32 25.74 27.9 2.95 2.5 14.4 2.34 17.66.34 3.46-2.12 9.44-8.42 26.53-27.68 0 0 .27-1.05 1.07-8.15s2.13-16.31 2.54-25.19c.2-5.8 1.7-18.2 1.7-18.2.1-.1 1.1-9.6.2-13.6z" fill="#582812" stroke-width="none" opacity="1" stroke="none"></path><path id="SvgjsPath5078" d="M140.4 54.9c-2.2-10-6.3-16-15.2-20.8-9.3-5-25.2-4.8-25.2-4.8s-15.9-.2-25.2 4.8c-8.8 4.8-13 10.8-15.2 20.8-.9 4 0 13.6 0 13.6s1.6 12.3 1.7 18.2c.2 5.8 1.4 18 2.2 25.1.98 7.08 1.46 7.68 1.46 7.68 12.25 14.4 22.69 25.32 25.74 27.9 2.95 2.5 14.4 2.34 17.66.34 3.46-2.12 9.44-8.42 26.53-27.68 0 0 .27-1.05 1.07-8.15s2.13-16.31 2.54-25.19c.2-5.8 1.7-18.2 1.7-18.2.1-.1 1.1-9.6.2-13.6zm-.03 10.19-.33 3.24-.06.13c-.55 4.29-1.13 8.57-1.59 12.87-.24 2.14-.41 4.33-.56 6.47-.17 2.14-.39 4.28-.63 6.42-.49 4.28-1.14 8.54-1.72 12.82-.3 2.13-.6 4.3-.86 6.43l-.43 3.2-.23 1.59-.13.78-.08.41-10.86 12.02c-3.72 4.04-7.41 8.17-11.32 11.92-.98.92-1.98 1.83-3 2.6-.25.2-.51.36-.77.54-.14.1-.57.32-.71.37-.53.22-1.14.39-1.76.52-2.52.53-5.25.65-7.89.51-1.32-.09-2.64-.24-3.86-.56-.6-.16-1.19-.36-1.66-.61-.1-.07-.51-.34-.64-.46-.25-.21-.49-.43-.74-.66-1.98-1.83-3.9-3.82-5.82-5.78-3.83-3.94-7.58-7.98-11.27-12.06l-5.53-6.13-1.36-1.54-.68-.77-.17-.19s-.17-.3-.2-.42c-.36-1.24-.61-2.62-.85-3.96-.5-2.7-.79-5.41-1.12-8.16-.31-2.74-.65-5.47-.9-8.22-.26-2.74-.51-5.49-.7-8.23-.21-2.73-.23-5.5-.48-8.26-.21-2.76-.48-5.5-.78-8.25-.27-2.76-.67-5.47-.76-8.21-.12-2.74-.16-5.5.06-8.19.06-.67.14-1.34.28-1.97.14-.64.33-1.31.49-1.97.37-1.31.78-2.6 1.27-3.85.98-2.51 2.25-4.89 3.93-6.95 1.64-2.09 3.68-3.83 5.88-5.34 1.1-.76 2.26-1.43 3.44-2.08 1.16-.62 2.38-1.12 3.64-1.58 2.52-.9 5.16-1.51 7.83-1.97 2.67-.48 5.38-.8 8.09-1 2.72-.21 5.43-.32 8.16-.24 5.45.14 10.94.63 16.2 2.02 2.64.7 5.16 1.68 7.52 3.07 2.36 1.36 4.6 2.96 6.51 4.92 1.86 1.99 3.45 4.26 4.57 6.77 1.14 2.5 1.94 5.14 2.54 7.83.23 1.1.29 2.24.33 3.37.03 1.13.01 2.27-.03 3.4-.1 1.13-.16 2.26-.26 3.39z" fill="#2a0d00" stroke-width="none" opacity="1" stroke="none"></path></g></g><g id="svga-group-mouth-single-move" transform="matrix(1,0,0,1,0,0)"><g id="svga-group-mouth-single"><path id="SvgjsPath5903" d="M119.75 120.2c-2.07.95-4.03 1.44-5.29 1.57-4.78.49-8.33.87-12.75 2.53-1.8.7-2.7.9-4.5.4-1.4-.4-2.8-.7-4.2-.9-2.1-.32-4.18.13-6.29.2-1.2.04-2.44-.29-3.84-.62-.7 0-1.25.22.14.97 3.11 1.68 5.12 1.2 8.62 2 2.4.5 6.2 3.44 8.6 2.64 3-1 6.57-3.23 9.57-4.23 3.3-1 4.76-.51 9.4-3.4.65-.45.99-1.37.54-1.16z" fill="#da7c87" stroke-width="none" opacity="1" stroke="none"></path></g></g><g id="svga-group-eyes-left-move" transform="matrix(1,0,0,1,0,0)"><g id="svga-group-eyes-left"><g id="svga-group-eyesback-left"><path id="SvgjsPath6546" d="M80.2 74.2c7.5 0 13.5 5.8 13.5 13s-6 13-13.5 13-13.5-5.8-13.5-13 6-13 13.5-13z" fill="#ffffff" stroke-width="none" opacity="1"></path></g><g id="svga-group-eyesiriswrapper-left" transform="matrix(1,0,0,1,0,0)"><g id="svga-group-eyesiriscontrol-left" transform="matrix(1,0,0,1,0,0)"><g id="svga-group-eyesiris-left"><path id="SvgjsPath6763" d="M80.2 81.6c3.1 0 5.6 2.5 5.6 5.6s-2.5 5.6-5.6 5.6-5.6-2.5-5.6-5.6 2.5-5.6 5.6-5.6z" fill="#4e60a3" stroke-width="none" opacity="1"></path><path id="SvgjsPath6764" d="M80.2 82.7c2.5 0 4.5 2 4.5 4.5s-2 4.5-4.5 4.5-4.5-2-4.5-4.5 2-4.5 4.5-4.5z" fill="#000000" stroke-width="none" opacity="1"></path><path id="SvgjsPath6765" d="M74.6 87.2c0 .9.2 1.8.6 2.6.8.5 1.8.8 2.8.8 2.9 0 5.3-2.4 5.3-5.3 0-1.2-.4-2.4-1.1-3.3-.6-.2-1.3-.4-2-.4-3.1 0-5.6 2.5-5.6 5.6z" fill="#6777b2" stroke-width="none" opacity="1"></path><path id="SvgjsPath6766" d="M75.7 87.2c0 1.3.5 2.4 1.4 3.3.3.1.6.1 1 .1 2.9 0 5.3-2.4 5.3-5.3 0-.5-.1-1.1-.2-1.6-.8-.7-1.8-1.1-2.9-1.1-2.6.1-4.6 2.1-4.6 4.6z" fill="#1e1e1e" stroke-width="none" opacity="1"></path><path id="SvgjsPath6767" d="M77.7 84.8c.6-.7 1.6-.9 2-.4.5.5.4 1.4-.3 2.1s-1.6.9-2 .4c-.4-.5-.3-1.4.3-2.1z" fill="#2b2b2b" stroke-width="none" opacity="1"></path></g></g></g><g id="svga-group-eyesfront-left"><path id="SvgjsPath6554" d="M80.2 73.7c-7.8 0-14.1 6.1-14.1 13.5s6.3 13.5 14.1 13.5 14.1-6.1 14.1-13.5S88 73.7 80.2 73.7zm-3.7 17.1c-5.1-2.4-8.8-5.9-9.2-6.8-.3-.9 7-2.1 10-1.7 3.1.4 10.5 4.1 11.5 5.8 1 1.7 1.8 5 1.8 5-4.7 1.5-9 .1-14.1-2.3z" fill="#582812" stroke-width="none" opacity="1"></path><path id="SvgjsPath6555" d="M91.7 95.9s-.2-6.3-1.9-8.8c-1.7-2.5-11.8-5.5-12.7-5.7-.9-.3-14.5-.1-14.5-.1l4.5 2.7v.1c.1.2.2.3.3.4.4.5.8.9 1.2 1.3.8.8 1.8 1.5 2.7 2.2 1.9 1.4 3.9 2.5 6 3.4s4.3 1.8 6.5 2.2c2.2.4 4.5.2 6.7-.5.7 1.5 1.2 2.8 1.2 2.8zM84 93.2c-2.2-.5-4.3-1.3-6.4-2.3-2.1-.9-4.1-2-5.9-3.3L69 85.5l-1.2-1.2-.1-.1c1.1-.3 7.1-1.8 9.2-1.8.4 0 .7.1 1 .2 2.6.9 9.7 4.6 10.6 5.8.5.7 1.4 2.9 2.1 4.7-2.1.5-4.4.6-6.6.1z" fill="#000000" stroke-width="none" opacity="1"></path></g></g></g><g id="svga-group-eyes-right-move" transform="matrix(1,0,0,1,0,0)"><g id="svga-group-eyes-right"><g id="svga-group-eyesback-right"><path id="SvgjsPath6547" d="M119.8 74.2c7.5 0 13.5 5.8 13.5 13s-6 13-13.5 13-13.5-5.8-13.5-13 6-13 13.5-13z" fill="#ffffff" stroke-width="none" opacity="1"></path></g><g id="svga-group-eyesiriswrapper-right" transform="matrix(1,0,0,1,0,0)"><g id="svga-group-eyesiriscontrol-right" transform="matrix(1,0,0,1,0,0)"><g id="svga-group-eyesiris-right"><path id="SvgjsPath6768" d="M119.8 82.3c2.7 0 4.9 2.2 4.9 4.9s-2.2 4.9-4.9 4.9-4.9-2.2-4.9-4.9 2.2-4.9 4.9-4.9z" fill="#4e60a3" stroke-width="none" opacity="1"></path><path id="SvgjsPath6769" d="M119.8 83.2c2.2 0 4 1.8 4 4s-1.8 4-4 4-4-1.8-4-4 1.8-4 4-4z" fill="#000000" stroke-width="none" opacity="1"></path><path id="SvgjsPath6770" d="M114.9 87.2c0 .8.2 1.6.6 2.3.7.4 1.5.7 2.4.7 2.6 0 4.6-2.1 4.6-4.6 0-1.1-.4-2.1-1-2.9-.5-.2-1.1-.3-1.7-.3-2.7-.1-4.9 2.1-4.9 4.8z" fill="#6777b2" stroke-width="none" opacity="1"></path><path id="SvgjsPath6771" d="M115.8 87.2c0 1.1.5 2.2 1.2 2.9.3.1.6.1.8.1 2.6 0 4.6-2.1 4.6-4.6 0-.5-.1-.9-.2-1.4-.7-.6-1.6-.9-2.5-.9-2.1-.1-3.9 1.7-3.9 3.9z" fill="#1e1e1e" stroke-width="none" opacity="1"></path><path id="SvgjsPath6772" d="M117.6 86.1c.6-.6 1.4-.8 1.8-.4.4.4.3 1.2-.2 1.8s-1.4.8-1.8.4c-.4-.4-.3-1.2.2-1.8z" fill="#2b2b2b" stroke-width="none" opacity="1"></path></g></g></g><g id="svga-group-eyesfront-right"><path id="SvgjsPath6556" d="M119.8 73.7c-7.8 0-14.1 6.1-14.1 13.5s6.3 13.5 14.1 13.5 14.1-6.1 14.1-13.5-6.3-13.5-14.1-13.5zm4.1 15.9c-4.9 2.1-8.7 3.4-13.6 4.2 0 0 1.5-3.8 2.5-5.3 1-1.6 9.5-5.3 12.4-5.6 2.9-.3 7.7 1.4 7.3 2.2-.2.8-3.7 2.4-8.6 4.5z" fill="#582812" stroke-width="none" opacity="1"></path><path id="SvgjsPath6559" d="M137.7 83s-12.8-.7-13.6-.5-10.4 2.7-12.1 4.9-2.1 8.3-2.1 8.3.4-.9.8-2c4.2-.5 8.1-1.7 12-3.3 1-.4 2-.8 3-1.3 1-.4 2-.9 2.9-1.4 1-.5 1.9-1 2.9-1.6.2-.1.5-.3.7-.5l.3-.3c0-.1.1-.1.1-.2l5.1-2.1zm-6.4 2.8c-.9.5-1.9 1-2.9 1.4-1 .5-2 .9-2.9 1.3-1 .4-2 .9-3 1.3-2 .8-4 1.6-6 2.3-1.9.6-3.8 1.1-5.7 1.5.8-1.8 1.9-4.2 2.4-5 .9-1.2 11.8-5.4 13.4-5.6 1.4-.2 4.5 1.8 5.3 2.3-.2.3-.4.4-.6.5z" fill="#000000" stroke-width="none" opacity="1"></path></g></g></g><g id="svga-group-facehighlight-single"></g><g id="svga-group-eyebrows-left-move" transform="matrix(1,0,0,1,0,0)"><g id="svga-group-eyebrows-left-rotate" transform="matrix(1,1.7453292519943295e-9,-1.7453292519943295e-9,1,1.2391838311032188e-7,-1.3753196981269866e-7)"><g id="svga-group-eyebrows-left"><path id="SvgjsPath7078" d="M67.87 76.23s1.96-4.66 6.27-6.5c4.32-1.84 16.59 1.19 15.86 4.07-.73 2.87-4.1 1.64-6.44.58s-7.93-6.39-15.69 1.85z" fill="#2a232b" stroke-width="none" opacity="1"></path><path id="SvgjsPath7079" d="M90.03 72.96c-.29-.52-.75-.86-1.2-1.16-.47-.29-.96-.54-1.45-.76-1-.43-2.04-.76-3.09-1.05-2.1-.56-4.25-.98-6.44-1.04-1.09-.01-2.21.05-3.28.38-1.06.38-2.02.95-2.87 1.64-.86.69-1.6 1.52-2.24 2.39-.33.44-.62.9-.89 1.37-.14.24-.26.48-.38.72-.06.12-.12.24-.17.37l-.08.19-.04.09-.02.05c-.01.03-.01.06-.01.08.19-.18.4-.35.61-.55.21-.21.41-.36.62-.55.2-.18.41-.35.62-.51.21-.17.42-.34.64-.49.87-.63 1.8-1.17 2.79-1.56a8.6 8.6 0 0 1 3.08-.63c.53 0 1.05.05 1.57.13.52.09 1.03.24 1.52.42 1 .35 1.93.86 2.87 1.4.47.27.94.56 1.46.78.5.22 1.01.43 1.53.6.52.18 1.05.34 1.61.42.55.09 1.13.12 1.7-.03.28-.07.56-.19.8-.37s.43-.41.58-.66c.14-.25.24-.53.31-.8.03-.15.04-.31.02-.46-.05-.13-.1-.28-.17-.41zm-.18.81c-.07.25-.17.49-.3.7-.26.43-.69.72-1.17.82-.49.11-1.01.07-1.53-.02-.51-.1-1.02-.25-1.52-.43s-.99-.39-1.48-.61c-.48-.21-.93-.49-1.4-.77-.93-.56-1.91-1.09-2.95-1.46-1.05-.37-2.17-.57-3.28-.53-1.11.05-2.22.31-3.22.75-1.01.44-1.94 1.04-2.79 1.72-.22.17-.42.34-.62.53-.21.18-.41.36-.6.56-.19.19-.4.38-.56.57-.17.19-.33.4-.53.61 1.02-1.85 2.36-3.63 4.05-4.92.84-.64 1.78-1.18 2.76-1.52 1-.29 2.08-.37 3.15-.39 1.07-.01 2.15.05 3.22.18 1.07.13 2.13.32 3.18.59 1.05.27 2.07.61 3.05 1.06.49.22.97.47 1.41.78.43.3.85.66 1.08 1.1a1 1 0 0 1 .05.68z" fill="#1b141c" stroke-width="none" opacity="1"></path></g></g></g><g id="svga-group-eyebrows-right-move" transform="matrix(1,0,0,1,0,0)"><g id="svga-group-eyebrows-right-rotate" transform="matrix(1,1.7453292519943295e-9,-1.7453292519943295e-9,1,1.2705996255135688e-7,-2.123193070246998e-7)"><g id="svga-group-eyebrows-right"><path id="SvgjsPath7080" d="M132.8 72.8s-2.65-4.3-7.2-5.46c-4.55-1.16-16.21 3.72-15.05 6.45s4.3.99 6.45-.41c2.16-1.41 6.87-7.53 15.8-.58z" fill="#2a232b" stroke-width="none" opacity="1"></path><path id="SvgjsPath7081" d="m132.8 72.74-.03-.05-.05-.09-.11-.17c-.07-.12-.15-.23-.23-.34-.16-.22-.32-.44-.49-.65-.34-.43-.7-.84-1.09-1.22-.78-.77-1.63-1.47-2.58-2.02-.95-.56-1.98-.97-3.09-1.18-1.11-.16-2.22-.06-3.3.13-2.16.39-4.22 1.13-6.2 2.01-.99.45-1.97.93-2.89 1.51-.46.29-.91.61-1.32.97-.41.37-.81.77-1.01 1.33-.05.14-.08.29-.08.44 0 .15.03.31.09.45.11.26.25.51.43.74.18.23.41.43.67.57.26.14.56.22.85.24.59.06 1.15-.06 1.68-.23s1.04-.41 1.52-.66c.49-.26.96-.54 1.42-.83.48-.29.9-.66 1.32-.99.84-.68 1.68-1.33 2.62-1.83.46-.25.94-.48 1.44-.64.5-.17 1.01-.29 1.53-.37 1.04-.14 2.11-.1 3.14.15 1.03.24 2.04.62 3 1.11.24.12.47.25.71.38s.47.26.7.41c.23.15.45.27.69.45.24.16.48.3.69.45-.01-.01-.01-.05-.03-.07zm-.63-.48c-.19-.16-.43-.32-.64-.48-.22-.16-.44-.31-.67-.46-.23-.15-.46-.3-.7-.43-.95-.54-1.95-1-3.02-1.28a8.942 8.942 0 0 0-3.3-.25c-1.11.13-2.18.5-3.16 1.03-.98.52-1.86 1.2-2.7 1.89-.42.35-.82.7-1.26.98-.45.3-.9.58-1.37.83-.47.26-.95.49-1.44.66-.49.17-1.01.29-1.5.26-.5-.03-.96-.25-1.29-.63-.16-.19-.3-.41-.41-.65-.1-.21-.1-.45-.03-.69.15-.48.51-.89.89-1.26.39-.37.82-.69 1.27-.98.9-.59 1.86-1.09 2.86-1.51.99-.42 2.02-.78 3.05-1.07 1.04-.29 2.09-.52 3.15-.68 1.06-.15 2.13-.24 3.17-.1 1.02.18 2.04.57 2.96 1.08 1.87 1.02 3.47 2.57 4.76 4.24-.23-.16-.42-.34-.62-.5z" fill="#1b141c" stroke-width="none" opacity="1"></path></g></g></g><g id="svga-group-beardwrap"><g id="svga-group-beard-single-move" transform="matrix(1,0,0,1,0,0)"><g id="svga-group-beard-single"></g></g></g><g id="svga-group-mustache-single-move" transform="matrix(1,0,0,1,0,0)"><g id="svga-group-mustache-single"><path id="SvgjsPath8950" d="m95.82 117.66.09-.27-.28.07-3.01.77.63-.98.36-.56-.66.15-2.27.53.43-1.07.24-.6-.63.16-2.93.73.42-.9.34-.74-.79.24c-.91.28-1.81.57-2.71.86l-.04-.61-.03-.43-.41.11-.83.22.5-.85.43-.73-.83.24-1.99.59.61-1.13.43-.81-.8.43-3.63 1.94.32-1 .09-.28-.27.1-1.32.49.27-1.05.03-.12-.11.06-1.12.62 1.06-.47-.36 1.09-.06.17.18-.05 1.23-.37-.44 1.15-.17.44.44-.21 3.29-1.6-.58.99-.39.67.76-.21 1.91-.54-.51.85-.43.72.82-.21 1.23-.31.04.65.03.46.45-.14c.79-.24 1.58-.5 2.37-.75l-.37.83-.3.68.71-.19 3.02-.79-.4 1.05-.23.59.6-.16 2.21-.59-.56.94-.32.53.58-.18 3.29-1-.31 1.1-.06.22.2-.08 2.83-1.11-2.69.83.4-1.18z" fill="#2a232b" stroke-width="none" opacity="1"></path><path id="SvgjsPath8951" d="m125.07 112.89-1-.12h-.03l-.02.02-.34.51-1.01-.44-.12-.05-.03.14-.14.74-1.75-.77-.27-.12-.01.31-.01.55-1.85-.66-.42-.15.08.45.14.82c-.75-.51-1.51-1.01-2.27-1.51l-.63-.42.12.75.37 2.32-1.24-.63-.4-.2-.12.43-.26.92-1.64-.51-.52-.16.06.54.09.87-2.41-.92-.37-.14-.07.39-.28 1.59-1.89-.62-.31-.1-.03.31-.14 1.39-1.81-1-.21-.12-.03.23-.21 1.66-2.21-1.13 2.24 1.38.12.08.03-.15.3-1.54 1.85 1.14.28.18.05-.34.2-1.39 1.91.72.34.13.07-.36.3-1.54 2.56 1.02.53.21-.05-.57-.08-.88 1.48.49.37.12.1-.38.24-.86 1.46.72.63.31-.12-.68-.39-2.26c.74.48 1.49.96 2.24 1.42l.6.37-.14-.67-.22-1.06 1.72.53.3.09-.01-.3-.01-.56 1.67.62.17.06.02-.17.1-.8.95.34.06.02.03-.05.32-.56h.97z" fill="#2a232b" stroke-width="none" opacity="1"></path></g></g><g id="svga-group-nose-single-move" transform="matrix(1,0,0,1,0,0)"><g id="svga-group-nose-single"><path id="SvgjsPath5491" d="M96.8 88.78c-.28 1.49-.54 2.98-.59 4.45 0 .36.01.73.07 1.07.02.18.08.32.12.48l.21.53c.27.71.52 1.43.75 2.16.22.73.41 1.48.53 2.25.05.39.09.78.07 1.19-.01.41-.13.85-.31 1.21-.36.72-.85 1.32-1.36 1.89-.52.56-1.07 1.09-1.66 1.56.47-.59.94-1.18 1.37-1.8.43-.61.84-1.24 1.11-1.89.13-.33.19-.63.18-.98 0-.35-.05-.71-.12-1.06a16.4 16.4 0 0 0-.55-2.14c-.21-.71-.45-1.42-.7-2.13l-.18-.54c-.05-.2-.12-.42-.13-.62-.06-.41-.03-.8 0-1.19.07-.78.24-1.53.43-2.26.22-.75.46-1.48.76-2.18z" fill="#2a0d00" stroke-width="none" opacity="1" stroke="none"></path><path id="SvgjsPath5492" d="M103.7 88.62c.49.61.9 1.27 1.26 1.96.09.17.18.35.26.53.04.1.08.17.12.28.03.11.08.23.09.33.08.43.07.83.05 1.23-.06.79-.22 1.55-.42 2.3-.19.75-.45 1.47-.71 2.2-.06-.79.05-1.56.12-2.31.09-.76.18-1.51.24-2.24.03-.36.04-.73 0-1.06-.02-.28-.19-.67-.3-1.02-.24-.72-.49-1.44-.71-2.2z" fill="#2a0d00" stroke-width="none" opacity="1" stroke="none"></path><path id="SvgjsPath5493" d="M109.24 107.49s1.28.96 1.53 1.77c.24.8-.32 2.57-1.12 2.65s-3.77-.64-4.17-.24c-.4.4-.8 4.42-2.01 4.9s-6.02.56-6.58-.32c-.56-.88-1.12-4.01-1.85-4.17-.72-.16-3.77.08-4.5 0-.72-.08-1.2-1.77-.32-3.45.88-1.69 4.74-3.53 7.39-3.69 2.65-.16 7.41.62 7.41.62s3.08 1.11 4.22 1.93z" fill="#50220c" stroke-width="none" opacity="1" stroke="none"></path><path id="SvgjsPath5494" d="M109.24 107.49c.42.32.81.68 1.15 1.09.16.21.32.43.39.69.07.26.06.53.03.79-.08.52-.24 1.05-.56 1.48-.16.21-.4.4-.68.4-.27.01-.53-.02-.8-.05-.53-.06-1.05-.14-1.58-.19-.26-.03-.52-.05-.79-.07-.26-.01-.53-.02-.76.04-.06.02-.09.04-.12.07-.03.03-.05.09-.07.15-.04.12-.08.24-.11.37-.07.25-.12.51-.18.77-.11.52-.23 1.04-.37 1.55-.15.51-.31 1.03-.59 1.52-.15.24-.32.49-.64.64-.28.12-.55.17-.81.23-1.07.19-2.14.24-3.22.22-.54-.02-1.08-.05-1.63-.15-.27-.05-.55-.12-.84-.25-.14-.07-.3-.15-.44-.33-.11-.16-.16-.28-.23-.41-.44-1.02-.68-2.05-1.07-2.99-.1-.22-.21-.46-.33-.58-.03-.03-.05-.05-.06-.05-.01-.01 0 .01.01 0l-.07-.01c-.1-.01-.23-.02-.35-.03-.5-.02-1.03 0-1.56.01l-1.59.04c-.27 0-.53.01-.83-.01a.983.983 0 0 1-.31-.07c-.1-.04-.18-.11-.26-.17-.14-.13-.24-.27-.32-.42-.29-.59-.3-1.19-.24-1.76.08-.57.26-1.12.55-1.62.31-.52.73-.9 1.17-1.23.44-.33.9-.62 1.38-.87.95-.51 1.96-.9 3-1.18.52-.14 1.05-.24 1.58-.3.54-.06 1.08-.05 1.61-.03 1.06.04 2.12.15 3.17.29 1.05.13 2.1.28 3.14.46.72.28 1.45.57 2.16.89.36.16.71.32 1.05.5.36.16.71.34 1.02.57zm0 0c-.32-.22-.66-.4-1.01-.58-.35-.17-.7-.34-1.06-.49-.71-.31-1.43-.6-2.17-.86-2.09-.3-4.2-.52-6.31-.53-.52.01-1.05.02-1.56.1s-1.02.2-1.52.36c-.99.31-1.96.73-2.85 1.26-.45.26-.88.55-1.27.88-.39.32-.75.69-.97 1.09-.23.42-.38.9-.43 1.38-.05.47 0 .98.2 1.34.05.09.1.16.16.21.03.02.05.04.07.05.01.01.02.01.03.01h.05c.22.02.49.01.75 0l1.58-.05c.53-.02 1.06-.04 1.61-.01.14.01.28.01.44.04l.12.02c.07.02.14.05.19.08.11.06.18.14.24.2.23.28.34.53.45.79.21.52.37 1.03.53 1.53.16.5.3 1.01.49 1.47.04.1.11.23.14.29.02.03.1.09.19.13.19.09.43.16.68.21.49.1 1.01.16 1.53.19 1.04.06 2.09.05 3.12-.09.25-.04.51-.08.72-.16.18-.07.34-.25.47-.46.27-.42.45-.91.61-1.41.16-.5.3-1.01.43-1.52l.21-.77c.04-.13.08-.26.14-.39.03-.07.06-.13.12-.2a.46.46 0 0 1 .22-.13c.29-.07.56-.04.82-.02.27.02.53.06.79.1l1.57.24c.26.03.52.07.78.07.26.01.48-.17.64-.37.32-.41.5-.93.58-1.45.03-.26.04-.53-.02-.78-.07-.25-.22-.48-.38-.69-.31-.39-.7-.75-1.12-1.08z" fill="#2a0d00" stroke-width="none" opacity="1" stroke="none"></path></g></g><g id="svga-group-hair-front"><path id="SvgjsPath8756" d="M151.4 72.2c.5-1.9.6-4.1-.1-5.9-.4-.9-1.1-1.9-1.9-2.6.3-1.5.2-3-.4-4.4-.4-.8-.9-1.3-1.4-1.7-.3-.6-.7-1.1-1.2-1.5.1-.3.1-.6.2-.9 1.9-1.7 2.7-4.9 2.2-7.2-.4-1.6-1.5-3.3-3-4.3-.2-.8-.5-1.5-.8-2.1-1.3-2.3-3.5-3.7-5.8-4.6-.5-3.2-2.4-5.8-5.5-6.3-.1-.2-.1-.4-.2-.6-1.1-2.7-3.6-4-6.4-4.1-1.7-.1-3.4.5-5.2.5-1.8 0-3.3-.8-4.8-1.7-.8-1.9-2.3-3.4-4.1-4.5l-.4-.4c-.2-.2-.5-.2-.8-.2-.1 0-.1 0-.2-.1-.2-.3-.6-.6-1-.8-.4-.1-.8.2-.8.6 0 1 .1 1.9-.2 2.6-.2.2-.3.5-.5.8-.1.1-.3.3-.4.5-.3.2-.6.4-.8.6-1.4-.3-2.9 0-4.6 0-2.4-.1-4.1-1.3-5.4-2.9-.1-.7-.1-1.4-.1-2.1.1-.4.2-.7.3-1.1v-.2c.1-.1.3-.1.4-.2.1 0 .1-.1.2-.1.3 0 .7-.1 1-.2.5-.1.7-.7.3-1.1-1.4-1.4-3.8-.8-5.3.1-.1 0-.1.1-.2.1-1.4.5-2.6 1.7-3.1 3.6-.2.7-.3 1.3-.3 2-1.9-.3-4 1.2-5.4 2.7-1.1-1.1-3.2-1.8-4.8-1.9-.3-.1-.6-.2-.9-.2-1-.1-2 .1-2.8.6-.2.1-.4.1-.6.2-.2.1-.4.3-.4.6-1.6 1.1-2.4 3-2.4 4.9-.3.4-.6.7-1 1.1l-1 1c-.6.1-1.3.1-2.1 0-1.7-.3-3.2-1.2-4.9-1.4-2.6-.2-4.3 1.3-4.2 3.8 0 .1 0 .2.1.3-.4.1-.8.3-1.2.4-1.7.7-3.3 1.9-3.9 3.7-.6 1.8.3 2.6.7 4.2.7 2.4-2.1 3.2-3 5.3-.6 1.4-.5 2.8.1 4.2.1.2.3.5.4.8-.6 1-.7 2.6-.4 4.2-2.4-1.1-5-2-5.2-4.3 0-.5-.9-.8-1-.1-.4 2.2.3 3.7 2.2 4.9 1.3.9 3 1.3 4.3 2.4-.2.1-.3.3-.3.6 0 .6-.2 1.2-.5 1.8 0 .1-.1.1-.1.2v.1c-1 1.7-3 3.5-3.7 5.1-.2.6-.4 1.2-.6 1.9-1.6.7-2.9 3-3.4 4.3-1.2 3-.9 6.5 1.7 8.6.4.3 1 0 .9-.5-.7-2.5-.6-5.4.6-7.7-.3 2.1.6 3.8 2.7 4.6 1.3.5 2.6.4 3.9.6.8.1 1.6.2 2.3.8.3.2.5.6.7.9-.2.4-.4.8-.4 1.4-.4.7-.7 1.4-.9 2.1-.4 1.1-.5 2.3-.2 3.4.8 2.4 3.2 2.5 5.2 1.7.9-.4.5-1.9-.5-1.8-.5 0-1.4.1-1.8-.3-.5-.5-.2-1.4 0-2 .4-1.1 1-2.4.5-3.5.1-.1.2-.3.3-.4v-.2c.9-.7 1.9-1.4 2.5-2.3.6-1.2.5-2.5-.2-3.5 2.8-1 3.9-5.1 3-7.8-.2-.5-.5-1.1-.9-1.6-.7-2-1.7-3.3-1.2-5.6.2-1.2.7-2 1.4-2.8-.8 2.5-.3 5.7 2.6 6.4.3.1.6-.3.3-.6-5.1-4.3 4.8-9.5 7.3-12.9.2-.2.3-.5.5-.8.6 2.2 2 4.3 4.2 4.5.7.8 1.6 1.2 2.8 1.2.1 0 .2 0 .3-.1 1 .4 2.1.5 3.1-.2.4-.3.3-.8-.1-1-.7-.2-1.3-.3-1.9-.5-.4-1.1-.8-2.2-.9-3.2 2.4-6.2 10-5.6 14.4-9.7 1.3 1.2 2.8 1.7 4.7 1.9 1.3.1 2.6.2 3.7.9 1.1.8 1 1.9 1.2 3.1.1.8 1 1.1 1.7.9-.4 2-1.9 3.2-2.9 5-.2.4 0 1 .5.9.6-.1 1.1-.2 1.6-.5.5-.1.9-.3 1.4-.5 4.8 0 6.2-5.4 5.8-9.5.9 2.2 2.6 4 4.7 5 .9.5 2.4.8 3.9.9.1 0 .1 0 .1.1 1.1.4 2 1.1 2.8 2 .6.7 1 1.7 1.9 2 .5 2.1 2.1 4.4 4 4.9.2 0 .4.1.6.1.4.4.9.7 1.3 1 .6.4 1.3.6 2 .8.8 2.5-.3 4-1.6 6.1-1.5 2.5-1.3 4.8.5 7 .1.2.3.2.5.2-.9 2.7-1 5.7 1 7.8.5 1.8 2.1 4.2 4.3 3.6.3-.1.6-.5.3-.8-.6-.7-1.2-1.3-1.7-1.9 0-.1.1-.1.1-.2 1-3.6 6-3.4 8.1-6.3v.1c-.4 2.4-.4 5.2 1.6 6.8.4.3.9-.1.9-.5-.1-1.6-.7-2.9-.4-4.5.1-2 1-3.2 1.5-4.6zm-39.8-46.7c-.1 0-.1 0-.2.1-.2.1-.3.3-.4.4-.3-.3-.6-.6-.8-.9.1-.1.2-.2.3-.4.4-.5.8-1.2.9-1.9.1-.1.1-.3.2-.4.1 1.1.1 2.1 0 3.1z" fill="#080806" stroke-width="none" opacity="1" stroke="none"></path><path id="SvgjsPath8757" d="M95 39.5c-.7.8-1.6 1.5-2.6 1.9-2 .9-4.4 1.3-6.7 2.6-1.1.7-2.2 1.5-2.9 2.7-.7 1.2-1.1 2.7-.7 4.1.3 1.4 1.3 2.5 2.5 3.1 1.2.6 2.6.6 3.7 0-1.3.1-2.4-.2-3.3-.9-.8-.6-1.4-1.6-1.5-2.6-.3-2 1.2-3.7 3.1-4.7 1.8-1.1 4.3-1.6 6.5-3 1.1-.7 2.1-1.6 2.7-2.7.6-1.1.9-2.5.4-3.7 0 1.3-.5 2.4-1.2 3.2zM78.8 52.6c-.9-.6-1.7-1.4-2.3-2.3-.6-1-1.1-2-1.2-3.4-.7 1.2-.7 2.7-.2 4 .5 1.3 1.4 2.5 2.6 3.3 1.2.8 2.6 1.2 3.9 1.3 1.4.1 2.7-.1 3.9-.6-1.3-.3-2.5-.5-3.7-.9-1-.3-2.1-.8-3-1.4zM72.2 44c.9 1.8 1 3.7.4 5.4-.3.8-.7 1.5-1.4 2.1-.6.6-1.4 1.1-2.2 1.6-.8.5-1.7 1.1-2.5 1.8-.8.8-1.5 1.7-1.8 2.9-.5 2.4 1.1 4.7 3.1 5.1-1.6-1.2-2.1-3.2-1.6-4.7.6-1.5 2.2-2.4 3.8-3.5.8-.5 1.7-1.1 2.5-2 .8-.8 1.3-1.9 1.5-3 .5-2.1-.2-4.4-1.8-5.7zm-8.4-14c1.1.1 2.2.6 3.4 1 1.2.4 2.6.8 4.1.4.7-.2 1.5-.6 2.1-1.2.6-.6.9-1.4 1.1-2 .3-1.4.4-2.5.9-3.4.4-.9 1.3-1.5 2.3-2 2-.8 4.5-.2 6.7 1-.9-.9-1.9-1.7-3.2-2.2-1.2-.5-2.7-.6-4-.3-1.4.3-2.7 1.2-3.5 2.5-.8 1.4-.8 2.7-1.1 3.8-.3 1.1-.7 1.7-1.7 1.9-.4.1-1 .2-1.5.2s-1.1-.1-1.7-.2c-1.2-.2-2.5-.6-3.8-.5-.7.1-1.3.3-1.9.6-.6.3-1 .9-1.2 1.5.6-1 1.8-1.2 3-1.1zm-8.5 22.6c-1.8-1.3-2.6-3.5-2-5.2.3-.9.8-1.7 1.5-2.2.3-.2.8-.5 1.3-.9.3-.2.5-.4.8-.8.3-.3.5-.8.5-1.3s-.2-1-.3-1.3c-.2-.3-.4-.6-.6-.8-.3-.4-.4-.6-.5-1-.2-.7.1-1.6.6-2.3.5-.7 1.4-1.2 2.4-1.3 1-.2 2.1-.1 3.2.1-.9-.6-2-1-3.2-1.1-1.2 0-2.5.3-3.5 1.3-.9.9-1.5 2.2-1.3 3.7 0 .7.5 1.5.9 1.9.4.5.5.7.5.8 0 0 0 .1-.1.2l-.4.4c-.4.3-.8.5-1.4 1-1 .9-1.7 2-1.9 3.3-.2 1.2.1 2.6.7 3.6.7 1 1.7 1.7 2.8 1.9zm1.6 35.5c-1.1-1.2-1.2-3.2-.2-4.6.2-.4.6-.9.8-1.6.3-.7.3-1.6-.1-2.3-.8-1.3-2.2-1.8-3.4-1.8-1.2 0-2.2.2-3.1.2-.9-.1-1.9-.4-2.4-1.4 0 .5.3 1.1.7 1.5.4.4.9.7 1.5.9 1.1.3 2.2.3 3.1.4.5.1.8.2 1.2.4.3.2.6.5.7.7s.1.4 0 .7c-.1.3-.4.7-.7 1.2-1.4 2.1-1.2 5.2.9 6.8 2 1.7 5.2.8 6-1.3-1.5 1.6-3.9 1.4-5 .2zM64 63c-.8-.7-1.6-1.3-2.2-2.1-.6-.8-1-1.8-.8-2.8-.6.9-.5 2.3 0 3.3.5 1.1 1.3 2 2 2.7.7.8 1.5 1.5 1.9 2.3.4.8.6 1.7.6 2.6 0 .9-.3 1.8-.7 2.6-.4.8-1.1 1.3-1.9 2-.8.6-1.8 1.2-2.5 2.2-.3.5-.6 1-.7 1.6-.1.6 0 1.2.2 1.7-.1-1.1.5-2 1.2-2.6l.9-.6c.4 1 .4 2 .1 2.8-.2.5-.4.8-.8 1.2-.4.3-.9.7-1.5 1.2-.5.4-1.1 1.1-1.4 1.9-.2.8-.3 1.6 0 2.4.5 1.6 2 2.6 3.3 2.4-1.2-.7-1.8-1.7-1.8-2.7 0-.5.1-1 .3-1.4.2-.4.5-.7.9-1.1.4-.4 1-.8 1.5-1.3.5-.6 1-1.4 1-2.1.2-1.3-.3-2.6-1.2-3.3.5-.2.9-.5 1.4-.7 1-.5 2-1.2 2.7-2.3.7-1.1 1.1-2.3 1.1-3.5 0-1.2-.3-2.5-1-3.6-.9-1.4-1.8-2.1-2.6-2.8zM46 74.9c0-1.3.3-2.6.7-3.8.1-.4.3-.7.4-1.1.2 1.6 1 3.1 2.3 4-1.5-2.1-1.5-4.8-.5-6.7.5-1 1.3-1.7 2.3-2.5 1-.8 2.1-1.9 2.6-3.4.2-.8.2-1.7-.2-2.5-.3-.8-1-1.4-1.6-1.8-1.2-.8-2.4-1.2-3.1-1.9-1.5-1.4-1.8-4.3-.2-6.3-2.3 1.4-2.9 5-.9 7.3 1 1.2 2.3 1.7 3.2 2.3.9.7 1.2 1.3.9 2.2-.2.9-1 1.7-1.9 2.6-.5.4-.9.9-1.4 1.4-.5.5-.9 1.2-1.1 1.8-.2.5-.3 1.1-.4 1.6-.7.6-1.3 1.4-1.8 2.2-.8 1.3-1.2 2.9-1.3 4.4 0 1.6.3 3.1 1 4.5s1.7 2.6 3 3.3c-.7-1.3-1.2-2.6-1.6-3.9-.3-1.1-.5-2.4-.4-3.7zm61.6-56.1c.9.2 1.6.7 2 1.3.5.7.8 1.5.8 2.3.1.8-.1 1.6-.4 2.4-.7 1.6-1.9 3-3.4 4s-3.3 1.6-5.3 1.3c.8.6 1.9.8 3 .8s2.1-.3 3.1-.8c1.9-.9 3.6-2.5 4.5-4.6.9-2 .6-4.7-1-6.4.7.5 1.3 1 1.8 1.6.6.7 1.1 1.5 1.5 2.3.4.8.6 1.7.7 2.6.1 1 .1 1.9-.1 3 .9-.7 1.4-1.8 1.7-3s.1-2.4-.4-3.5-1.3-2-2.3-2.7c-1-.6-2.1-.9-3.2-.8-.3-.3-.7-.5-1.1-.7-.6-.2-1.1-.3-1.7-.3-1.1 0-2.2.6-2.8 1.5.8-.4 1.8-.5 2.6-.3zm-16.7 6.4c1-2.1.7-4.4 1-6.1.2-.9.5-1.6 1-2.1.5-.6 1.3-1 2.2-1.2 1.7-.5 3.7 0 5.5.9-1.3-1.5-3.4-2.6-5.8-2.4-1.1.1-2.3.6-3.2 1.4-.5.4-.8.9-1.1 1.5-.3.5-.4 1.1-.6 1.7-.4 2.2 0 4.2-.5 5.9-.5 1.6-2 3.1-3.9 3.6 2.1.1 4.4-1.1 5.4-3.2zM77 41.9c-.6-1-1-1.9-1.3-2.9-.3-.9-.4-1.9-.3-2.8.1-.9.3-1.8.7-2.7.2-.3.3-.7.5-1-.2.6-.3 1.2-.2 1.8.1.8.5 1.6 1 2.3.6.7 1.3 1.1 2 1.4 1.5.6 3.3.5 4.7-.3 1.4-.8 2.3-2 2.7-3.4-1.1.9-2.2 1.6-3.3 2s-2.3.3-3.3-.1-1.9-1.1-2.2-2.2c-.3-1-.3-2.4.5-3.5-.2.1-.5.2-.7.4-1.2.1-2.2.8-3 1.7-.8.9-1.3 2.1-1.4 3.4-.1 1.3.2 2.5.8 3.6.7 1.1 1.7 1.9 2.8 2.3zm23.3-25.1c-.4-.5-1.1-.6-1.7-.5-.6.1-1.2.4-1.6.9-.4.5-.7 1.1-.7 1.7 0 .6.2 1.2.7 1.6.3-.5.6-.9.8-1.2.2-.3.4-.5.7-.8.2-.2.4-.5.7-.7.3-.4.6-.7 1.1-1zm17.8 9c.8.7 1.9 1.1 2.9 1.3 2.1.4 4.1.1 5.9 0 .9 0 1.8 0 2.6.2s1.5.6 2.1 1.1c.6.5.9 1.2.9 2.1 0 .8-.3 1.7-1.1 2.3 1-.2 1.8-1.1 2.1-2.2v-.4c.3.4.6.6.8.9.3.4.6.7.9 1l1 1c.4.3.7.7 1.3 1.1.3-.6.3-1.3.1-1.9-.2-.6-.5-1.1-.9-1.6s-1-.8-1.6-1c-.5-.1-1-.2-1.6 0 0-.3 0-.6-.1-.9-.1-.6-.4-1.1-.8-1.5-.7-.9-1.7-1.5-2.7-1.9-1.1-.4-2.1-.5-3.2-.4-2.1 0-3.9.5-5.7.4-.9 0-1.7-.2-2.5-.6-.8-.4-1.5-.9-2.1-1.8.2 1.2.8 2.2 1.7 2.8zm4.5 21.4c-1-.1-1.9-.1-2.6-.3-1.4-.3-2.6-1.5-3.3-2.9-.7-1.5-.9-3.3-1-5.1-.5 1.2-.8 2.5-.8 3.8-.6-1.1-1.5-2-2.5-2.5 1.1 1.4 1.6 2.9 1.6 4.4 0 1.5-.5 2.9-1.3 4.1-.8 1.2-2 2.2-3.5 2.7-1.3.5-2.9.8-4.5.7.7 0 1.4-.3 2-.7.9-.6 1.5-1.6 1.7-2.7.2-1.1.1-2.2-.3-3.3-.4-1-1.2-1.9-2-2.6-.8-.7-1.9-1.2-2.9-1.4-1-.2-1.9-.4-2.8-.6-.9-.2-1.7-.4-2.4-1-.7-.5-1.3-1.2-1.5-2.2-.3 1 .1 2.1.8 2.9.7.8 1.7 1.4 2.6 1.7.9.4 1.9.6 2.7.9.8.3 1.6.7 2.2 1.2 1.3 1 2.1 2.5 2 4.1 0 1.5-1.2 3.2-3.1 3.6.2 0 .4.1.6.1 1.5.9 3.4 1.2 5.2.8 1.8-.4 3.6-1.5 4.6-3.1.9-1.2 1.4-2.7 1.3-4.2.3.6.7 1.1 1.1 1.6.7.8 1.7 1.4 2.8 1.6 1.1.2 2 .2 2.9.2.8 0 1.5.2 2.2.6 1.3.8 2.3 2.4 2.2 4.3 1-1.7.4-4.1-1.2-5.5-.6-.8-1.8-1.1-2.8-1.2zM136 77.6c-.2-1.5-.2-3.1.1-4.7.3-1.6.8-3.2 1.1-4.9-1 1.2-1.8 2.5-2.4 4-1-2-1.1-4.3-.3-6.2.4-1 1.3-1.9 1.9-3.3.3-.7.5-1.5.4-2.4-.1-.9-.7-1.7-1.3-2.2-1.2-1-2.5-1.4-3.4-2-.9-.5-1.7-1.4-2.3-2.4-1.1-2-1.1-4.6.1-6.9-1.9 1.7-2.7 4.9-1.6 7.6.5 1.3 1.5 2.5 2.7 3.3 1.2.8 2.4 1.2 3.1 1.9.7.6.9 1.3.5 2.3-.4 1-1.2 2.1-1.7 3.5-.8 2.5 0 5.3 1.6 7 0 .1-.1.2-.1.3-.6 1.7-.9 3.5-.6 5.4.3 1.8 1.2 3.7 2.7 4.9 1.5 1.2 3.6 1.7 5.2.9-1.7-.2-3.1-1-4.1-2.1-.8-1.1-1.4-2.5-1.6-4zm11.1-8.3c.8 1.5.8 3.2.2 4.5-.3.6-.7 1.2-1.3 1.6-.6.4-1.1.7-1.9.9-.7.2-1.6.3-2.6.8s-1.8 1.4-2 2.4c-.3 1-.1 2.2.5 2.9.6.8 1.5 1.3 2.4 1.3-.8-.4-1.3-1.1-1.5-1.7-.2-.7-.2-1.4.1-1.9.3-.6.7-1 1.3-1.2.6-.2 1.4-.3 2.3-.6.9-.2 1.9-.7 2.6-1.4.7-.7 1.3-1.6 1.5-2.5.6-2.1-.2-4.1-1.6-5.1zM142.6 55c2.1.4 3.8 1.5 4.9 3 1.1 1.5 1.4 3.3 1.1 5.1-.2.9-.5 1.7-1 2.4s-1.2 1.4-2 2c-1.5 1.2-3.5 2.5-4.4 4.4 1.6-1.4 3.5-2 5.3-3.1.9-.5 1.8-1.2 2.6-2.1.8-.9 1.2-2 1.5-3.2s.2-2.3-.1-3.5c-.3-1.1-.9-2.2-1.7-3-1.7-1.7-4.1-2.5-6.2-2zm7.6 25c-.1-1.5.3-3.1.9-4.7.6-1.6 1.2-3.4 1.3-5.3 0-1-.1-1.9-.5-2.8-.4-.9-1-1.7-1.9-2.1 1.1 1.5 1.1 3.2.8 4.7-.3 1.6-1.1 3.1-1.7 4.8-.6 1.7-1.1 3.7-.6 5.6.3 1 .8 1.9 1.6 2.5.7.6 1.7 1 2.6.9-1.5-.5-2.3-2.2-2.5-3.6zm-13.4-41.3c-.6.1-1.1.3-1.6.7 2.2-.5 4.3.4 5.7 1.8s2 3.3 1.9 5.3c0 1-.2 2-.6 2.9-.3 1-.9 1.8-1.4 2.8-.6 1-1.1 2.1-1.3 3.3-.1 1.2.2 2.5 1.1 3.2-.6-1-.5-2.1-.2-3 .3-1 .9-1.8 1.6-2.6.7-.8 1.4-1.8 1.9-3 .5-1.1.7-2.3.8-3.5 0-1.2-.2-2.3-.6-3.5 1 .4 1.7 1 2.2 1.8.6.8 1 1.6 1.2 2.5.2.9.2 1.9.2 3s-.2 2.1-.3 3.3c.8-.8 1.4-1.9 1.8-3 .4-1.1.5-2.4.2-3.7-.3-1.3-1-2.4-2-3.2-1-.8-2.3-1.1-3.4-.8-.5-1.1-1.3-2.2-2.3-2.9-1-.7-2.2-1.2-3.3-1.3-.4-.3-1-.3-1.6-.1zm-9.5-.2-.2-2.3c-.1-.8-.2-1.6-.3-2.5-.6.7-1 1.5-1.2 2.3-.2.8-.3 1.7-.2 2.6s.3 1.7.7 2.5c.4.8.9 1.5 1.6 2.1 0-.9 0-1.7-.1-2.5l-.3-2.2zm-28-18.1c-.7.8-.9 2.1-.6 3.2.3 1.1 1 2.2 2 2.9.5.3 1.1.6 1.7.7.6.1 1.1 0 1.6 0s.8 0 1.2.1c.4.1.8.4 1 .9.3-.5 0-1.2-.4-1.7s-1.1-.8-1.6-.9c-.5-.1-1-.2-1.4-.3-.4-.1-.7-.3-1-.5-.7-.4-1.2-1-1.7-1.8-.4-.7-.7-1.6-.8-2.6z" fill="#000000" stroke-width="none" opacity="1" stroke="none"></path></g><g id="svga-group-glasses-single-move" transform="matrix(1,0,0,1,0,0)"><g id="svga-group-glasses-single"><path id="SvgjsPath8249" d="M67 81.67c-1.63 3.03-1.35 9.4 2.14 14.91 3.45 5.46 12.82 5.8 18.41 3.12 5.61-2.69 7.83-8.11 8.08-12.16.26-4.08-3.21-6.41-5.12-7.12-1.92-.72-12.68-2.15-17.58-1.44-4.89.72-5.93 2.69-5.93 2.69z" fill="url(#SvgjsLinearGradient8250)" opacity="1"></path><path id="SvgjsPath8253" d="M133.34 81.67c1.63 3.03 1.35 9.4-2.14 14.91-3.45 5.46-12.82 5.8-18.41 3.12-5.61-2.69-7.83-8.11-8.08-12.16-.26-4.08 3.21-6.41 5.12-7.12 1.92-.72 12.68-2.15 17.58-1.44 4.89.72 5.93 2.69 5.93 2.69z" fill="url(#SvgjsLinearGradient8254)" opacity="1"></path><path id="SvgjsPath8257" d="M120.31 102.38c-4.52 0-8.75-1.41-11.63-3.88-4.48-3.83-5.32-8.51-5.72-10.78-.1-.53-.17-.96-.27-1.22-.53-1.47-1.17-2.21-1.89-2.21h-1.26c-.72 0-1.36.75-1.89 2.21-.09.26-.17.68-.27 1.22-.4 2.26-1.24 6.94-5.72 10.78-2.88 2.47-7.12 3.88-11.63 3.88-2.94 0-5.77-.63-7.78-1.72-5.35-2.91-6.9-9.22-7.32-11.81-.54-3.3-1.89-3.93-2.3-4.04l-.19-5.72c.37-.01 1.49-.05 2.47-.3.06-.01 6.18-1.49 12.16-1.49.99 0 1.92.04 2.77.12 5.64.55 10.17 1.6 13.48 2.37l.73.17c2.3.53 3.91.61 4.67.61.41 0 .63-.02.63-.02h1.64s.21.02.61.02c.76 0 2.38-.08 4.67-.61l.73-.17c3.31-.77 7.85-1.83 13.48-2.37.85-.08 1.78-.12 2.77-.12 5.98 0 12.1 1.48 12.16 1.49.99.25 2.1.29 2.47.3l-.19 5.72c-.41.12-1.76.75-2.3 4.04-.42 2.59-1.97 8.9-7.32 11.81-1.98 1.1-4.82 1.72-7.76 1.72zm2.83-22.83c-.8 0-1.59.02-2.34.05-1.39.06-7.17.47-10.13 1.47-2.96 1-4.95 2.95-5.18 5.08-.27 2.45.53 5.53 2.14 8.21 1.71 2.85 3.96 4.64 6.88 5.49 1.8.52 3.5.76 5.35.76 1.53 0 3.16-.17 4.98-.51 3.23-.62 5.67-2.92 7.25-6.85 1.4-3.49 1.77-8.77-.09-11.21-1.27-1.67-4.17-2.49-8.86-2.49zm-45.94 0c-4.69 0-7.59.81-8.87 2.48-1.86 2.43-1.49 7.72-.09 11.21 1.58 3.94 4.02 6.24 7.25 6.85 1.82.35 3.44.51 4.98.51 1.85 0 3.55-.24 5.35-.76 2.93-.85 5.18-2.64 6.88-5.49 1.61-2.69 2.41-5.76 2.14-8.21-.24-2.13-2.22-4.08-5.18-5.08-2.96-1-8.74-1.41-10.13-1.47-.74-.01-1.53-.04-2.33-.04z" fill="#26120b" stroke-width="none" opacity="1"></path><path id="SvgjsPath8258" d="M123.27 77.43c5.96 0 12.06 1.48 12.12 1.49.91.23 1.91.28 2.38.3l-.18 5.5c-.52.19-1.79.98-2.3 4.12-.42 2.58-1.96 8.83-7.25 11.72-1.99 1.08-4.8 1.7-7.71 1.7-4.49 0-8.69-1.4-11.55-3.85-4.45-3.81-5.28-8.46-5.68-10.71-.1-.56-.17-.97-.27-1.24-.56-1.55-1.22-2.3-2.02-2.3h-1.26c-.8 0-1.46.75-2.02 2.3-.1.27-.17.68-.27 1.24-.4 2.25-1.23 6.9-5.68 10.71-2.86 2.45-7.07 3.85-11.55 3.85-2.92 0-5.73-.62-7.71-1.7-5.3-2.89-6.83-9.15-7.25-11.72-.51-3.14-1.78-3.92-2.3-4.12l-.18-5.5c.46-.01 1.47-.07 2.38-.3.06-.01 6.16-1.49 12.12-1.49.98 0 1.91.04 2.76.12 5.63.55 10.16 1.6 13.46 2.37l.73.17c2.31.53 3.94.61 4.7.61.4 0 .61-.02.62-.02h1.63s.22.02.64.02c.77 0 2.39-.08 4.7-.61l.73-.17c3.3-.77 7.83-1.83 13.46-2.37.84-.08 1.76-.12 2.75-.12m-3.4 23.31c1.54 0 3.18-.17 5-.52 3.28-.62 5.75-2.95 7.35-6.93 1.41-3.52 1.78-8.86-.1-11.33-1.3-1.7-4.24-2.53-8.97-2.53-.71 0-1.48.02-2.35.05-1.39.06-7.19.48-10.17 1.48-3.01 1.01-5.03 3-5.27 5.18-.27 2.48.54 5.58 2.16 8.29 1.72 2.88 4 4.69 6.96 5.54 1.81.52 3.52.77 5.39.77m-39.39 0c1.86 0 3.57-.24 5.39-.77 2.96-.85 5.23-2.66 6.96-5.54 1.62-2.71 2.43-5.81 2.16-8.29-.24-2.18-2.26-4.17-5.27-5.18-2.97-1-8.77-1.42-10.17-1.48-.87-.04-1.64-.05-2.35-.05-4.73 0-7.67.83-8.97 2.53-1.89 2.47-1.52 7.81-.1 11.33 1.6 3.98 4.07 6.31 7.35 6.93 1.82.35 3.45.52 5 .52m42.79-23.57c-.95 0-1.88.04-2.78.13-6.07.59-10.85 1.77-14.23 2.55-2.25.52-3.84.61-4.64.61-.4 0-.61-.02-.61-.02h-1.66s-.21.02-.61.02c-.81 0-2.39-.09-4.65-.61-3.38-.78-8.16-1.96-14.23-2.55-.9-.09-1.84-.12-2.78-.13-5.44 0-11.18 1.25-12.19 1.5-1.18.29-2.57.29-2.57.29l.2 5.94s1.69.19 2.3 3.96c.61 3.74 2.54 9.26 7.39 11.9 2.04 1.11 4.85 1.74 7.84 1.74 4.1 0 8.53-1.18 11.72-3.91 5.55-4.75 5.53-10.69 6.02-12.05.49-1.35 1.08-2.13 1.77-2.13h1.26c.69 0 1.28.78 1.77 2.13.49 1.35.47 7.3 6.02 12.05 3.19 2.73 7.62 3.91 11.72 3.91 2.99 0 5.8-.62 7.84-1.74 4.85-2.64 6.78-8.16 7.39-11.9.61-3.77 2.3-3.96 2.3-3.96l.2-5.94s-1.39 0-2.57-.29c-1.04-.25-6.78-1.5-12.22-1.5zm-3.4 23.32c-1.99 0-3.69-.29-5.31-.76-2.83-.82-5.06-2.51-6.81-5.43-1.76-2.93-2.37-5.93-2.13-8.14.24-2.21 2.36-4.05 5.09-4.97 2.74-.92 8.21-1.38 10.09-1.46.75-.03 1.54-.05 2.33-.05 3.52 0 7.23.43 8.77 2.44 1.88 2.45 1.41 7.77.07 11.09-1.33 3.3-3.47 6.07-7.16 6.78-1.85.34-3.47.5-4.94.5zm-39.4 0c-1.47 0-3.09-.16-4.95-.51-3.69-.7-5.83-3.48-7.16-6.78-1.33-3.32-1.8-8.64.07-11.09 1.54-2 5.25-2.43 8.77-2.44.8 0 1.58.02 2.33.05 1.88.08 7.35.54 10.09 1.46 2.74.92 4.85 2.76 5.09 4.97.24 2.2-.37 5.2-2.13 8.14-1.75 2.92-3.98 4.61-6.81 5.43-1.61.48-3.31.77-5.3.77z" fill="#070201" stroke-width="none" opacity="1"></path></g></g></g></g></g><rect id="svga-credit-rect" width="200" height="15" x="0" y="185" fill="#ecf0f1" opacity="0.5" style="display: none;"></rect><text id="svga-credit-text" font-family="Avenir Next, Roboto, Helvetica, Arial, sans-serif" font-size="10px" text-anchor="start" font-weight="400" size="10px" anchor="start" weight="400" fill="#333333" x="33.40447998046875" y="182.60824704170227" style="display: none;"><tspan id="SvgjsTspan4756" dy="13" x="33.40447998046875">Created on AvatarMaker.com</tspan></text></g><defs id="SvgjsDefs4703"><linearGradient id="SvgjsLinearGradient5418" x1="100.0394" y1="79.6722" x2="100.0394" y2="122.2396" gradientUnits="userSpaceOnUse" class="svga-on-canvas-nose-gradient-single-0-null"><stop id="SvgjsStop5419" stop-opacity="0" stop-color="#67361f" offset="0" ></stop><stop id="SvgjsStop5420" stop-opacity="0.9727" stop-color="#582812" offset="0.7584" ></stop><stop id="SvgjsStop5421" stop-opacity="0.9769" stop-color="#50220c" offset="0.7953" ></stop><stop id="SvgjsStop5422" stop-opacity="0.9852" stop-color="#491c08" offset="0.8691" ></stop><stop id="SvgjsStop5423" stop-opacity="0.9968" stop-color="#391200" offset="0.972" ></stop><stop id="SvgjsStop5424" stop-opacity="1" stop-color="#2a0d00" offset="1" ></stop></linearGradient><linearGradient id="SvgjsLinearGradient8087" x1="80.8483" y1="78.7842" x2="80.8483" y2="101.3287" gradientUnits="userSpaceOnUse" class="svga-on-canvas-glasses-gradient-single-0-null"><stop id="SvgjsStop8088" stop-opacity="1" stop-color="#9bc2cf" offset="0" ></stop><stop id="SvgjsStop8089" stop-opacity="0" stop-color="#6086c4" offset="1" ></stop></linearGradient><linearGradient id="SvgjsLinearGradient8091" x1="-19.4949" y1="78.7842" x2="-19.4949" y2="101.3287" gradientTransform="matrix(-1 0 0 1 100 0)" gradientUnits="userSpaceOnUse" class="svga-on-canvas-glasses-gradient-single-1-null"><stop id="SvgjsStop8092" stop-opacity="1" stop-color="#9bc2cf" offset="0" ></stop><stop id="SvgjsStop8093" stop-opacity="0" stop-color="#6086c4" offset="1" ></stop></linearGradient><linearGradient id="SvgjsLinearGradient8168" x1="79.1" y1="71.7" x2="79.1" y2="105.64" gradientUnits="userSpaceOnUse" class="svga-on-canvas-glasses-gradient-single-0-null"><stop id="SvgjsStop8169" stop-opacity="1" stop-color="#b4c0cf" offset="0" ></stop><stop id="SvgjsStop8170" stop-opacity="0.9374" stop-color="#abbace" offset="0.0626" ></stop><stop id="SvgjsStop8171" stop-opacity="0.679" stop-color="#8aa3ca" offset="0.321" ></stop><stop id="SvgjsStop8172" stop-opacity="0.4305" stop-color="#7393c6" offset="0.5695" ></stop><stop id="SvgjsStop8173" stop-opacity="0.1987" stop-color="#6589c5" offset="0.8013" ></stop><stop id="SvgjsStop8174" stop-opacity="0" stop-color="#6086c4" offset="1" ></stop></linearGradient><linearGradient id="SvgjsLinearGradient8176" x1="121.5" y1="71.7" x2="121.5" y2="105.64" gradientUnits="userSpaceOnUse" class="svga-on-canvas-glasses-gradient-single-1-null"><stop id="SvgjsStop8177" stop-opacity="1" stop-color="#b4c0cf" offset="0" ></stop><stop id="SvgjsStop8178" stop-opacity="0.9374" stop-color="#abbace" offset="0.0626" ></stop><stop id="SvgjsStop8179" stop-opacity="0.679" stop-color="#8aa3ca" offset="0.321" ></stop><stop id="SvgjsStop8180" stop-opacity="0.4305" stop-color="#7393c6" offset="0.5695" ></stop><stop id="SvgjsStop8181" stop-opacity="0.1987" stop-color="#6589c5" offset="0.8013" ></stop><stop id="SvgjsStop8182" stop-opacity="0" stop-color="#6086c4" offset="1" ></stop></linearGradient><linearGradient id="SvgjsLinearGradient8250" x1="80.8483" y1="78.7842" x2="80.8483" y2="101.3287" gradientUnits="userSpaceOnUse" class="svga-on-canvas-glasses-gradient-single-0-null"><stop id="SvgjsStop8251" stop-opacity="1" stop-color="#9bc2cf" offset="0" ></stop><stop id="SvgjsStop8252" stop-opacity="0" stop-color="#6086c4" offset="1" ></stop></linearGradient><linearGradient id="SvgjsLinearGradient8254" x1="-19.4949" y1="78.7842" x2="-19.4949" y2="101.3287" gradientTransform="matrix(-1 0 0 1 100 0)" gradientUnits="userSpaceOnUse" class="svga-on-canvas-glasses-gradient-single-1-null"><stop id="SvgjsStop8255" stop-opacity="1" stop-color="#9bc2cf" offset="0" ></stop><stop id="SvgjsStop8256" stop-opacity="0" stop-color="#6086c4" offset="1" ></stop></linearGradient></defs></svg>